<svg xmlns="http://www.w3.org/2000/svg" width="154" height="135.55" viewBox="0 0 154 135.55"><defs><style>.cls-1{fill:#009072;}</style></defs><title>img_mainVisual_01</title><g id="レイヤー_2" data-name="レイヤー 2"><g id="レイヤー_1-2" data-name="レイヤー 1"><path class="cls-1" d="M1.18,14.64C1.24,4.66,10.68.35,19.38.35c9.44,0,19.69,3.84,19.69,15,0,12-9,14.3-18.95,14.3-3.91,0-10.24,1-10.24,6.13v4H39.21v8.29H1V35.75c0-10.86,9.85-14.1,19.15-14.1,3.58,0,10.12-.6,10.12-6.07C30.24,10.46,25.59,8,19.52,8c-4.66,0-9.44,2.36-9.51,6.61Z"/><path class="cls-1" d="M43.8,21.11c0-28.18,41.4-28.11,41.4,0v6.81c0,28.12-41.4,28.19-41.4,0Zm8.83,6.81c0,17.13,23.74,17.13,23.74,0V21.11c0-16.85-23.74-17.06-23.74,0Z"/><path class="cls-1" d="M88.31,40.6h7.08V9H88V1h16.19V40.6h6.54v7.55H88.31Z"/><path class="cls-1" d="M143.63,33.52V26.44c-2.09,3.24-7.22,5-10.93,5-9.5,0-19.48-4-19.48-15.71,0-10.45,10-15.64,19.55-15.64s19.69,5.19,19.69,15.77v17.6c0,10.52-9.71,15.44-19.42,15.44-10.25,0-19.62-4-19.62-14h8.9c0,4.18,5.53,6.27,10.59,6.27,5.32.06,10.72-2.83,10.72-8Zm-21.58-17.8c0,5.19,4.72,8,10.65,8s11-2.7,10.93-8S138.57,8,132.77,8C127.17,8,122.05,10.53,122.05,15.72Z"/><path d="M44.48,89.71c6.24,17,17,28.56,32.8,35.28l-8.08,9.36a1.24,1.24,0,0,1-.88.56,2.27,2.27,0,0,1-1-.32,59.16,59.16,0,0,1-28.48-31.92,43.25,43.25,0,0,1-5.52,12.88,52.75,52.75,0,0,1-23,19.68,3.43,3.43,0,0,1-1.12.32,1.46,1.46,0,0,1-.88-.4L0,126.91c10.64-4.16,18.8-11.2,23.12-17.6,3-4.48,5.68-10.56,6.88-19.6H16.48L3.2,90l-.56-.56V79.63l.56-.56,13.28.24H30.72V60.43l.56-.56H42.72l.56.56V79.31h17.2l13.28-.24.56.56v9.76l-.56.56-13.28-.24Z"/><path d="M92.08,134.91H80.56l.56-31.36V73.87l-.24-12,.56-.56,10.32.24H99.6l4.88-.24,3.76,4.08a2,2,0,0,1,.48,1.44,6.28,6.28,0,0,1-.16,1.12,142.14,142.14,0,0,1-6,20.24c4.08,7.12,5.68,11.52,5.68,18.48,0,8.56-5.12,13.2-11.84,13.2-1.2,0-1.52-.24-1.92-1.2l-2.88-9Zm-.48-25.28c5.44.08,6.16-.8,6.16-5,0-3.12-.72-7.36-5-15a2.21,2.21,0,0,1-.24-1,4.13,4.13,0,0,1,.16-.88A111.65,111.65,0,0,0,97,71.47H91.52v32.08Zm58-25c.88.8,1,1.36.72,3-1.52,11.36-4.48,20.4-8.72,27.68a50.32,50.32,0,0,0,12.4,10.4l-7,8a1.78,1.78,0,0,1-1.28.8,2.51,2.51,0,0,1-1.28-.56,53.08,53.08,0,0,1-9.84-9,58.46,58.46,0,0,1-11.68,9.52,3.27,3.27,0,0,1-1.6.72,1.78,1.78,0,0,1-1.28-.8l-5.44-6.16a44.84,44.84,0,0,1-3.6,5.36,1.16,1.16,0,0,1-1,.64,1.23,1.23,0,0,1-.88-.4l-7.52-6.48c6.48-8.64,8.72-14.48,8.72-33V73.79l-.24-10.72.56-.56,12,.24H140.4l11.2-.24.64.48v9.2l-.64.48-11.2-.24H121.2v8.72h18.4l5.84-.4Zm-18.16,8.16a93.14,93.14,0,0,0,3.28,12.08,53.8,53.8,0,0,0,3.76-14.24H121.2c-.16,12.32-.16,25.28-6.08,36.48,2.08-1.44,4.08-2.8,5.92-4.32a55.25,55.25,0,0,0,6.88-6.8,74.22,74.22,0,0,1-6.08-20.4l.32-.72,8.64-2.4Z"/></g></g></svg>