<?xml version="1.0" encoding="utf-8"?>
<!-- Generator: Adobe Illustrator 23.1.1, SVG Export Plug-In . SVG Version: 6.00 Build 0)  -->
<svg version="1.1" id="レイヤー_1" xmlns="http://www.w3.org/2000/svg" xmlns:xlink="http://www.w3.org/1999/xlink" x="0px"
	 y="0px" viewBox="0 0 241.2 227.3" style="enable-background:new 0 0 241.2 227.3;" xml:space="preserve">
<style type="text/css">
	.st0{clip-path:url(#SVGID_2_);}
	.st1{fill:#71B92B;}
	.st2{fill:#FFFFFF;}
	.st3{fill:#BEDB92;}
	.st4{fill:#009072;}
	.st5{fill:#4FAA92;}
	.st6{fill:none;stroke:#4FAA92;stroke-miterlimit:10;}
	.st7{fill:none;stroke:#231815;stroke-width:2;stroke-linecap:round;stroke-linejoin:round;}
	.st8{fill:#231815;stroke:#231815;stroke-width:2;stroke-linecap:round;stroke-linejoin:round;}
	.st9{fill:#FFFFFF;stroke:#231815;stroke-width:2;stroke-linecap:round;stroke-linejoin:round;}
	.st10{fill:#FFFFFF;stroke:#231815;stroke-width:2.0085;stroke-linecap:round;stroke-linejoin:round;stroke-miterlimit:4.017;}
	.st11{fill:#BEDB92;stroke:#231815;stroke-width:2;stroke-linecap:round;stroke-linejoin:round;}
	.st12{fill:#231815;}
	.st13{fill:#8DC21F;stroke:#231815;stroke-width:2;stroke-linecap:round;stroke-linejoin:round;}
</style>
<title>img_mainVisual_02</title>
<g>
	<g id="レイヤー_1-2">
		<g>
			<defs>
				<rect id="SVGID_1_" x="-11.7" y="-12.6" width="287.7" height="239.9"/>
			</defs>
			<clipPath id="SVGID_2_">
				<use xlink:href="#SVGID_1_"  style="overflow:visible;"/>
			</clipPath>
			<g class="st0">
				<path class="st1" d="M78.4,181.8c0.6-0.8,1-1.7,1.1-2.6l-17.8-31.3c0,0-20.9,4.5-28.1,9.7c-0.1-7.1-0.8-14.2-2-21.3
					c0,0-25.6,2.9-29,2.7c-1.3,7.8-5.1,48,12.6,54.8c15.9,2.5,39.8,2.8,39.8,2.8l-0.5,32.2h17.9C72.4,228.9,70.8,190.9,78.4,181.8z"
					/>
				<path class="st2" d="M88.4,71.6c0,0-1.5,3.9-0.3,11.3c1.2,7.4,2.1,25.5,2.1,25.5v14.9c0,0,9.8,6.6,17.8,0c0.3-1.6,0.5-3.3,0.4-5
					l3.5-0.6c0,0,3,9.1,13.1,8.8c10.1-0.4,13.9-5.2,13.9-5.2s-1-16.7,2.5-26.3c1.7-8.4-2.8-26.1-4.8-27.1
					C136.7,67.8,110.1,65.7,88.4,71.6z"/>
				<path class="st3" d="M106.2,73.4v5.8c0,0-9.4-3.8-14.9-0.6C94.8,75.1,95.6,72.9,106.2,73.4z"/>
				<path class="st3" d="M116,73.4l-0.7,5.2c0,0,8-4.9,16.2-2.3C129,73.2,122.3,71.4,116,73.4z"/>
				<path class="st4" d="M182.1,140.2c0,0,44.7,10.6,58,89.1c-9.6,0-69.2-0.4-69.2-0.4s-3.5-24.6-45-28c-14.1-3.4-39.4-10.6-43.9-17
					c-2.9-16.2-24.4-21.4-20.3-35.9c4.7-2.9,9.6-5.4,14.7-7.7L182.1,140.2z"/>
				<path class="st3" d="M108.5,119.2c0,0,1.7,5.7-9.4,6.9c-6.3,0.3-8.8-2.9-8.8-2.9s-9.5,4-2.1,14.6c5.6,6.9,9.2,10.5,19.1,14.1
					c2.4,1.5-1,5.7-1,5.7s10.8,0,18.9-6.3c10.1-5.8,21.9-9.9,21.4-21.1c-2.6-1.4-7.3-5.3-7.4-9.1c-4.3,2.5-21.9,11.3-27.1-3.6
					C110.3,117.3,108.7,118,108.5,119.2z"/>
				<path class="st3" d="M136.7,67.8c0,0,7,13.6,5.1,20.6s-8.9,36,4.6,41.8c6.6,3,20.6,3.1,29.6-3.9s9.8-16.6,1.6-18.7
					c-3.5-1.7-6.5,2-6.5,2s5-21.9-6.3-39.3C157.6,69.4,142.3,67.1,136.7,67.8z"/>
				<path class="st3" d="M88.5,93.9c0,0-3.6,19.3-5.2,19.9c-3.1-3.3-10.4-1.3-10.9,6.5c-0.5,7.7,9.8,9.1,11.5,8.5s4.3-5.1,6.3-5.5
					c0.3-3.4,0.5-6.7,0.4-10.1c0,0,8.4-0.5,10.1-1.7c3.4,3.1,9.3,1.1,9.3,1.1c2.3,1,4.9,0.8,7-0.6c4.3,1.6,7,1.9,9.5-1
					c4,2.5,7.8-2.3,8.2-5.6c-3.9,2.4-8.1,3.2-14.2-0.6c-4.3-1-8.6,1.9-8.6,1.9s-5,0.3-7.8-2.2c-3.1,2.1-7.8,5.2-14,4.7
					C90.3,105.5,88.5,93.9,88.5,93.9z"/>
				<path class="st2" d="M168.2,130.4c0,0,16.5,4.3,13.9,9.7s-16.9,14.9-64.6,15.4c6.4-3.4,17.4-9.8,17.4-9.8s11.6-7.2,11.5-14.1
					C150.3,131.4,164.8,132.1,168.2,130.4z"/>
				<path class="st2" d="M106.5,155.9c0,0,5.6-3.4-3.3-6.6c-8.7-3.2-15.1-8.8-17.2-17.1c-2.8,0.8-11.6,5.6-6.8,11.1
					C84,148.9,106.5,155.9,106.5,155.9z"/>
				<path class="st1" d="M170.9,228.9h-29c0,0-1.6-19.9-4.5-25.1c0.2-1.9,9.1,1.7,19.7,7.4C167.7,219.3,170.9,228.9,170.9,228.9z"/>
				<path class="st2" d="M33.4,134.4c0,0-3.7-11.5-4.8-11.1c-1.3,0.4,13.6-10.2,14.2-11.3s3.1-7.6-0.4-12.2
					c3.2-6.7-0.9-12.2-9.5-11.2s-17.6,0.4-19.4,6.4s-5.2,28.3-5.2,28.3S-2,134.3,1.7,137.6C6.7,138.9,26.7,140.6,33.4,134.4z"/>
				<path class="st5" d="M102.9,53.5l-9.1-42.8c0,0,12.3-17.6,43.9-5L129.5,51C129.5,51,111.5,50.4,102.9,53.5z"/>
				<polygon class="st4" points="137.8,5.7 142.1,15.7 133,51 129.5,51 				"/>
				<polygon class="st4" points="163.3,21.4 172.8,42.9 147.8,34.9 				"/>
				<path class="st5" d="M169.2,40.6l-4.7,14.8c0,0-19.6-3.6-20.3-3.7l6.5-17.1L169.2,40.6z"/>
				<path class="st3" d="M139.3,26.7c0,0,13.2,2.1,15.5,5.6L146.6,51l-14-0.4L139.3,26.7z"/>
				<polygon class="st1" points="154.8,32.3 156.5,38.9 149.8,51.6 146.6,51 				"/>
				<path class="st5" d="M90.3,21.5L97,54.2l-11.2,2.6L75.4,28.9C75.4,28.9,82.7,21.3,90.3,21.5z"/>
				<polygon class="st3" points="97.2,26.7 90.5,31.5 89.9,41 93.8,54.1 102.8,52.7 				"/>
				<path class="st4" d="M101.1,15.2c0,0,3.3-1.9,4.9-2.5l0.7,6.4c-1.7,0.4-3.3,1-4.8,1.8L101.1,15.2z"/>
				<path class="st4" d="M109.5,11.8c0,0,4.6-1.1,7.7-0.6l0.2,6.4c-2.4-0.3-4.8-0.2-7.1,0.3L109.5,11.8z"/>
				<path class="st4" d="M121.2,11.4c2.6,0,5.3,0.3,7.9,0.8l-1,6.6c0,0-4.3-1.3-7-1.1L121.2,11.4z"/>
				<path class="st4" d="M121,22.9c2.1,0.2,4.2,0.5,6.2,1l-0.9,5.2c0,0-4.8-1-5.7-0.9L121,22.9z"/>
				<path class="st4" d="M116.9,22.5c-2.1-0.3-4.3-0.2-6.4,0.2l0.4,5.3c2-0.2,3.9-0.3,5.9-0.2L116.9,22.5z"/>
				<path class="st4" d="M106.7,23.8l0.7,5.1c-1.4,0.3-2.8,0.7-4.1,1.3l-0.8-4.5C103.7,24.8,105.2,24.1,106.7,23.8z"/>
				<path class="st4" d="M111.8,33.6c1.7-0.5,3.6-0.6,5.3-0.2l0.2,5c0,0-3.6-0.2-5,0.5L111.8,33.6z"/>
				<path class="st4" d="M108.3,34.3l0.7,5c-1.2,0.2-2.4,0.6-3.5,1.1l-1-4.9C105.6,34.8,106.9,34.3,108.3,34.3z"/>
				<path class="st4" d="M120.8,33.9l-0.2,4.7c0,0,3.5,0.3,4.8,1.1l0.8-4.9C124.5,33.9,122.6,33.6,120.8,33.9z"/>
				<path class="st4" d="M154.6,47.8l4.7,1.4c0,0,3.2-7-0.3-8S154.6,47.8,154.6,47.8z"/>
				<line class="st6" x1="159.3" y1="40.6" x2="156.6" y2="49.2"/>
				<line class="st6" x1="161.1" y1="46.5" x2="155.2" y2="44.9"/>
				<path class="st1" d="M146.2,39.7l2.6-4.6c0,0-3.6-1.6-4.5-1.3l-1.7,5.1L146.2,39.7z"/>
				<path class="st1" d="M143.2,47.7l1.8-4.8c0,0-2.5-1.3-3.5-1l-1.7,4.6C139.9,46.5,142.5,46.8,143.2,47.7z"/>
				<path class="st1" d="M94,43.7l1.5,5.1l0.1,0.3c1.2-0.5,2.4-0.9,3.7-1.2l-1.4-5.7C97.8,42.1,95,42.7,94,43.7z"/>
				<polygon class="st1" points="89.7,40.4 98.8,36.3 97.1,27 90.5,31.5 				"/>
				<path class="st4" d="M81.7,31.3l1.8,5.4l4.9-2.4l-1.9-5.5C86.5,28.8,82.8,30.2,81.7,31.3z"/>
				<path class="st5" d="M84.4,57.8l2.6,9.4c10.3-2.4,20.9-3.8,31.5-4.3c17.7-0.8,46.8,3.4,46.8,3.4l0.9-9.7c0,0-19.7-7.4-47.2-5
					C91.5,54,84.4,57.8,84.4,57.8z"/>
				<path class="st4" d="M87,67.2l1.4,4.4c0,0,38.1-7.6,76.5-1.1l0.4-4.2C165.3,66.3,123.2,57.9,87,67.2z"/>
				<path class="st2" d="M80.1,179.2c0,0,6.2,12.6,27.3,17l-35.2,25.4C72.3,221.7,70.8,187.9,80.1,179.2z"/>
				<path class="st2" d="M93.2,228.9h48.7c0,0-0.4-18.9-4.5-25.1c-3.2-0.9-6.4-1.5-9.7-1.9C127.7,201.9,100.3,217.7,93.2,228.9z"/>
				<path class="st5" d="M131.2,201.8c0,0-20.5,13.8-34.3,27H72.4l-0.1-7.2c0,0,23.4-18.7,35.2-25.5
					C107.5,196.2,126.6,201,131.2,201.8z"/>
				<path class="st3" d="M69.3,228.9c0,0,0.2-35.4,9.2-51.4c3,0.1,3.5,6.3,3.5,6.3l5.7,4.4c0,0-7.9,0.9-5.8,40.7L69.3,228.9z"/>
				<path class="st3" d="M137.4,228.9h15.2c0,0-1.4-21.4-4.4-22.3c-2.4-0.9-13.2-2.9-13.2-2.9S138,219.9,137.4,228.9z"/>
				<path class="st5" d="M85.5,188.7l-10.7,3.2l7.8,8.5l-10.4,6.2l8.1,7.2l-9.7,7.9l10.7,7.2C81.3,228.9,80.2,201,85.5,188.7z"/>
				<path class="st5" d="M134.4,202.4c0,0,3.5,15,3,25.1c4.8-2.2,9.4-4.8,13.9-7.7l-13-6.3l9.8-6.9
					C148.2,206.6,135.9,202.4,134.4,202.4z"/>
				<path class="st3" d="M131.2,201.8c0,0-21.8,12.6-34.3,27h-5.8c0,0,18.4-21.7,34.8-28L131.2,201.8z"/>
				<path class="st3" d="M112.9,197.9l-5.4-1.7c0,0-21.8,13.3-25.8,18v6.3C81.7,220.5,96.2,204.7,112.9,197.9z"/>
				<path class="st7" d="M89.6,71.3c0,0-3.6,1.7-2.6,7.1c0.7,3.5,2.3,19.9,3.3,30.5"/>
				<path class="st7" d="M112,106.6c-2.2,1-7.9-0.7-8.3-4c-1.2-9,2.6-18,2.6-18c-4.7-2.7-10.5-2.4-14.9,0.8"/>
				<path class="st7" d="M115.2,79.3l0.4-5.1c0,0,9.8-5.5,17.4,4C130.1,77,121.6,73.3,115.2,79.3z"/>
				<path class="st7" d="M106.2,79.3l-0.1-5.1c0,0-10.5-3.5-15.2,5.1C95.9,77.4,99.9,76.5,106.2,79.3z"/>
				<path class="st7" d="M136.9,69c0,0,5.6,7.5,4.7,20s-11.8,40.7,10.7,42.7s30.2-10.4,30.9-16.9s-6.9-9.1-12.2-5.1
					s-3.2,9.1,0.1,9.6c4.4,0.6,4.3-4.4,4.3-4.4"/>
				<path class="st7" d="M171.1,109.7c0,0,3.5-16-1.1-29.3c-1.5-3.8-3.7-7.2-6.6-10.1"/>
				<path class="st7" d="M166.2,56.6l-1.3,13.8c0,0-35.5-6.8-76.5,1.1l-4.5-13.7c14.4-4.4,29.4-6.7,44.5-6.9
					C153.7,50.8,166.2,56.6,166.2,56.6z"/>
				<path class="st7" d="M116,104.4c3.8,0.1,5.9,0.6,9.9,2.8c4.6,2.6,9-2,9-2c1,8.7-8.3,5.7-8.3,5.7c-3,3.5-7.7,1.6-8.8,1.1
					c-3.6,3.1-7.8,0.5-7.8,0.5s-5.6,3.4-9-1.2c-1.5,0.5-9.6,4.5-14-3.6c0,0,7,4.7,17.3-3.3"/>
				<path class="st7" d="M107.2,119.2c2-2.1,5.3-2.2,7.4-0.3"/>
				<path class="st7" d="M117.5,84.7c0,0,5-5.7,13.7,0"/>
				<ellipse class="st8" cx="123.9" cy="84.5" rx="2.6" ry="2.4"/>
				<ellipse class="st8" cx="97.7" cy="85.6" rx="2.6" ry="2.4"/>
				<path class="st7" d="M165.3,66.3c0,0-21.3-3.6-39.5-3.6S87,67.2,87,67.2"/>
				<path class="st7" d="M85.4,57.5l-9.9-28.6c4.1-3.9,9.2-6.5,14.8-7.4l2,8.7l4.8-3.3l-3.2-16.1c0,0,15.4-17.9,43.9-5l4.4,10
					l-2.7,11.1c4.4,0,8.8,1.2,12.6,3.4l11.4-8.7l9.5,21.5l-4-1.3l-4.5,14.2"/>
				<path class="st8" d="M90.9,111.9c0,0,0.4,8.6-0.7,11.3"/>
				<path class="st7" d="M146.5,130.3c-0.1,12-15.1,16.6-22.6,21.9s-17.7,5.5-17.7,5.5s2-2.6,1.8-4.3c-0.4-4.1-14.4-2.8-21-17.7
					c-4.9-11.1,3.2-12.4,3.2-12.4s10.1,7.1,18.4-0.5"/>
				<path class="st7" d="M110.9,117.6c0,0,7,17.1,28.1,3.6"/>
				<path class="st7" d="M63.8,174.8c0,0-10.7,13.1-9.2,54"/>
				<path class="st7" d="M76.4,140.2c0,0-10,3.8-14.7,7.7c0,0-6.7,13.4,18.8,22.8c-6.5,17.5,19.7,24.8,52.4,31.8
					c36,6,37.9,28,37.9,28"/>
				<path class="st7" d="M31.6,136.3c1.9,8,3.3,15.1,2,21.3c0,0,8.8-5.4,28.1-9.7"/>
				<path class="st7" d="M28.7,123.2c-8.8,3.1-21.6,0-21.6,0S0.5,133.5,1,137c1.5,2.5,13.8,2,20.7,1.4s12.1-2.2,11.7-4.1
					S30.7,123.9,28.7,123.2c0,0,11.5-7.4,14.2-11.3s2.7-11.7-2.7-13.8s-11.6,2-14.1,2.3c-2.9,0.3,1.3,5.3,5.5,5.4
					c1.1,0.1,2.2-0.1,3.2-0.5"/>
				<path class="st7" d="M55.1,196.7c0,0-39.4,2.8-47.3-8.7c-6.3-9.1-8.6-34.9-5.1-48.9"/>
				<path class="st7" d="M8.3,123.2c0,0,1.7-14.1,2.3-16.3s1.7-16.4,8-16.8s17.9-3.6,22.6,0s2,8,2,8"/>
				<path class="st7" d="M17.4,99.2c0,0-0.7,5.4,1,6.6c2,1.4,8.4,1.2,10.7-0.5"/>
				<path class="st7" d="M182.1,140.2c0,0,31.1,9,47.6,52.6c11.3,29.9,10.4,37.7,10.4,37.7"/>
				<path class="st7" d="M88.5,179.7c7.6,5.3,16.7,8.2,26.1,8.2"/>
				<path class="st7" d="M84.7,171.7c0,0,9.4,6.6,17,7.5"/>
				<path class="st7" d="M144.6,109.1c0,0-3.2,15.5,13,16.4"/>
				<path class="st7" d="M150.3,117.3c0,0-2.3-3.1-1-8.3"/>
				<path class="st7" d="M157.6,69.4c0,0,8.5,9.3,8.6,18.6"/>
				<path class="st7" d="M153.1,69.4c0,0,5.1,7,5.8,9.3"/>
				<path class="st7" d="M81.8,118.4c5-1.6,0-9.4-5.4-6.4c-7.1,4.6-3.8,13.4,2.7,16.5c2.1,1.5,5,1,6.5-1.1c0.1-0.2,0.2-0.3,0.3-0.5"
					/>
				<path class="st7" d="M83.3,113.8c0,0,6.2-13,4.5-28.2"/>
				<path class="st7" d="M85.7,131.6c0,0-13.3,6-6.6,11.7c3.7,3.2,14.9,9.6,28.3,12.2"/>
				<path class="st7" d="M117.1,155.5c0,0,25.1,2.3,46.2-4.4c17.4-5.7,18.8-10.9,18.8-10.9c0.6-2.6,0.1-4.6-5.7-6.8
					c-1.8-0.7-8.6-2.9-8.6-2.9"/>
				<polyline class="st7" points="92.3,30.1 90.5,31.5 89.7,40.4 93.8,54.1 				"/>
				<path class="st7" d="M152,30.1c1,0.6,2,1.3,2.8,2.2l1.7,6.6l-6.7,12.7"/>
				<line class="st7" x1="97.1" y1="26.7" x2="102.8" y2="52.7"/>
				<line class="st7" x1="139.4" y1="26.7" x2="133.2" y2="49.9"/>
				<path class="st7" d="M69.5,155.4c0,0-3.4-3-2.3-6.1"/>
				<path class="st7" d="M179.1,143.6c0,0,14.9,7.4,18.9,12.3"/>
				<path class="st7" d="M185.3,153.8c0,0,9.3,3.7,12.6,11.4"/>
				<path class="st7" d="M82,228.9c0,0-3.5-16.3,4.5-40.9l-12.7,3.8l8.8,9l-11.7,5.9l10.5,7.2l-12,7.9l11.9,7.2"/>
				<path class="st7" d="M69.3,228.9c-0.1-17.9,3-35.6,9.2-52.4"/>
				<path class="st7" d="M134.4,202.6c0,0,3.5,14.9,3,26.2"/>
				<path class="st7" d="M152.6,229.7c0.5-11.3-4.4-23.1-4.4-23.1l-10.8,7.2l14.1,6l-14.1,9"/>
				<path class="st7" d="M82.3,213.8c0,0,13.7-11.4,25.9-17.4"/>
				<path class="st7" d="M130.6,202.4c0,0-25,14.6-33.7,26.4"/>
				<path class="st7" d="M112.6,197.9c0,0-22.8,12.1-31.4,22.6"/>
				<path class="st7" d="M91.2,228.9c0,0,15-17.8,34.8-28"/>
				<circle class="st9" cx="112.9" cy="170.7" r="6.7"/>
				
					<ellipse transform="matrix(0.9659 -0.2589 0.2589 0.9659 -38.6443 40.841)" class="st10" cx="135.7" cy="167.1" rx="2.2" ry="3.9"/>
				
					<ellipse transform="matrix(0.8622 -0.5066 0.5066 0.8622 -59.7269 98.3531)" class="st9" cx="150.9" cy="158.9" rx="2.2" ry="3.9"/>
				<path class="st11" d="M131.7,170.4c0.5-0.2,0.9-1.3,0.6-2.7s-0.9-2.4-1.5-2.3c0,0-6-1.1-10.8,1.8c-0.5,0.3-0.9,1.3-0.6,2.7
					s0.9,2.4,1.5,2.3C124.7,172.6,128.4,172,131.7,170.4z"/>
				<path class="st11" d="M149.1,163.1c0.4-0.4,0.5-1.5-0.1-2.7s-1.5-2.1-2-1.8c0,0-6.1,0.5-9.9,4.6c-0.4,0.4-0.5,1.5,0.1,2.7
					s1.5,2.1,2,1.8C142.9,167.2,146.3,165.6,149.1,163.1z"/>
				<path class="st11" d="M162,151.7c-1.1,2.9-3.1,5.5-5.7,7.2c-0.3,0.5-1.5,0.2-2.7-0.6s-1.6-1.8-1.4-2.3c0.2-0.7,0.4-1.5,0.8-2.2
					L162,151.7z"/>
				
					<ellipse transform="matrix(0.5841 -0.8117 0.8117 0.5841 -92.2971 142.3923)" class="st9" cx="92.8" cy="161.3" rx="3.9" ry="2.2"/>
				<path class="st11" d="M94.3,166.1c-0.4-0.4-0.3-1.5,0.4-2.7c0.7-1.2,1.7-1.9,2.2-1.6c0,0,6,1.1,9.4,5.6c0.4,0.5,0.3,1.5-0.4,2.7
					s-1.7,1.9-2.2,1.6C100,170.8,96.8,168.8,94.3,166.1z"/>
				<path class="st11" d="M82.4,151.1c-0.2-0.6,0.4-1.5,1.6-2.2s2.4-0.9,2.7-0.4c0,0,4.8,3.8,5.7,9.3c0.1,0.6-0.4,1.5-1.6,2.2
					c-1.2,0.7-2.4,0.9-2.7,0.4C85.3,157.9,83.3,154.7,82.4,151.1z"/>
				<path class="st9" d="M81.2,144.9c-1,0.8-1.9,2.6-1.6,3.4c0.4,1.1,2.4,1.4,4.4,0.6c0.6-0.2,1.2-0.6,1.8-1L81.2,144.9z"/>
				<circle class="st9" cx="75.4" cy="165.2" r="11.4"/>
				<path class="st12" d="M79,164.8c0.7-0.7,1.2-1.6,1.1-2.6c0-1.6-1-3-2.6-3.4c-0.9-0.3-1.8-0.4-2.8-0.3h-3.5
					c-0.4,0-0.7,0.3-0.7,0.7v12c0,0.4,0.3,0.7,0.7,0.7h4c0.9,0,1.9-0.1,2.8-0.5c1.5-0.5,2.5-2,2.5-3.6
					C80.7,166.6,80.1,165.5,79,164.8z M73.8,161.3h1c2.2,0,2.2,0.8,2.2,1.1s0,1.1-2.3,1.1h-0.9L73.8,161.3z M75.1,169h-1.4v-2.7h1
					c0.6,0,1.1,0.1,1.7,0.3c0.8,0.3,1,0.7,1,1.1S77.3,169,75.1,169L75.1,169z"/>
				<polygon class="st13" points="98.6,59.5 96,64.7 91.9,60.8 94.5,55.7 				"/>
				<polygon class="st9" points="159.9,60.7 155.9,64.4 153.9,58.6 157.9,54.9 				"/>
				<polygon class="st13" points="143.3,57.3 138.6,62 135,56.5 139.7,51.8 				"/>
				<polygon class="st9" points="119.4,57.2 115,63.2 110.1,57.7 114.5,51.7 				"/>
			</g>
		</g>
	</g>
</g>
</svg>
