<svg xmlns="http://www.w3.org/2000/svg" width="95.63mm" height="32.19mm" viewBox="0 0 271.09 91.25"><defs><style>.cls-1{fill:#131813;}.cls-2{fill:#71ba2b;}.cls-3{fill:#f8b62d;}</style></defs><title>logo</title><g id="レイヤー_2" data-name="レイヤー 2"><g id="ロゴ"><path class="cls-1" d="M134.38,77.47l8.06-13.07a2.51,2.51,0,0,0-.73-3.46,2.54,2.54,0,0,0-1.36-.4,2.5,2.5,0,0,0-2.11,1.16l-8.06,13.07a2.5,2.5,0,0,0,.73,3.45,2.54,2.54,0,0,0,1.36.4A2.51,2.51,0,0,0,134.38,77.47Z"/><path class="cls-1" d="M131.49,66.39,139.26,54a2.49,2.49,0,0,0,.35-1.88,2.51,2.51,0,0,0-2.44-2,2.5,2.5,0,0,0-2.1,1.15L127.3,63.68a2.49,2.49,0,0,0,.73,3.45,2.42,2.42,0,0,0,1.36.41h0A2.5,2.5,0,0,0,131.49,66.39Z"/><path class="cls-1" d="M178,35.17a2.5,2.5,0,0,0-4.33-2.5l-13,22.57A2.51,2.51,0,0,0,162.81,59h0A2.52,2.52,0,0,0,165,57.74l3.43-5.94V83a2.5,2.5,0,0,0,5,0V43.15Z"/><path class="cls-1" d="M129.26,32.34a2.46,2.46,0,0,0-1.61-1,2.12,2.12,0,0,0-.44,0,2.48,2.48,0,0,0-2.45,2.06l-3.84,21.75A2.51,2.51,0,0,0,123,58a3.13,3.13,0,0,0,.43,0A2.49,2.49,0,0,0,125.84,56l3.83-21.74A2.48,2.48,0,0,0,129.26,32.34Z"/><path class="cls-1" d="M151,43.28h-19.5a2.5,2.5,0,0,0,0,5h17V79.69H136.26a2.5,2.5,0,0,0,0,5H151a2.5,2.5,0,0,0,2.49-2.5V45.78A2.5,2.5,0,0,0,151,43.28Z"/><path class="cls-1" d="M103.25,57.63a3.13,3.13,0,0,0,.44,0,2.49,2.49,0,0,0,2.45-2.07l1.29-7.33h11.5a2.5,2.5,0,1,0,0-5h-2.72V33.67a2.5,2.5,0,1,0-5,0v9.61h-2.91l1.14-6.46A2.48,2.48,0,0,0,109,35a2.46,2.46,0,0,0-1.61-1,2.12,2.12,0,0,0-.44,0A2.49,2.49,0,0,0,104.54,36l-3.31,18.79a2.49,2.49,0,0,0,2,2.89Z"/><path class="cls-1" d="M223.3,40.41h42.34a2.5,2.5,0,0,0,0-5H223.3a2.5,2.5,0,0,0,0,5Z"/><path class="cls-1" d="M263.74,56H251a2.5,2.5,0,0,0,0,5h12.76a2.5,2.5,0,0,0,0-5Z"/><path class="cls-1" d="M268.59,78.12H247V44.62a2.5,2.5,0,0,0-5,0V56H225.15a2.5,2.5,0,0,0,0,5H242V78.12H220.35a2.5,2.5,0,1,0,0,5h48.24a2.5,2.5,0,1,0,0-5Z"/><path class="cls-1" d="M210.29,61h-12.2V52.35a2.5,2.5,0,1,0-5,0V61H180.52a2.5,2.5,0,1,0,0,5h12.57V83a2.5,2.5,0,0,0,5,0V66h12.2a2.5,2.5,0,0,0,0-5Z"/><path class="cls-1" d="M179.81,57.63a3.27,3.27,0,0,0,.44,0,2.5,2.5,0,0,0,2.46-2.07L184,48.27h24.72a2.5,2.5,0,1,0,0-5H198.08s0-.09,0-.14V34a2.5,2.5,0,0,0-5,0v9.18s0,.1,0,.14h-8.22L186,36.82a2.53,2.53,0,0,0-.41-1.87,2.5,2.5,0,0,0-1.62-1,2.09,2.09,0,0,0-.43,0A2.5,2.5,0,0,0,181.1,36l-3.31,18.79a2.46,2.46,0,0,0,.41,1.86A2.52,2.52,0,0,0,179.81,57.63Z"/><path class="cls-1" d="M120.24,58.39a2.51,2.51,0,0,0-.86.15l-3.17,1.16V52a2.5,2.5,0,1,0-5,0V64.54l-8.77,3.18a2.5,2.5,0,0,0-1.4,1.29,2.44,2.44,0,0,0-.09,1.91,2.5,2.5,0,0,0,2.35,1.65,2.46,2.46,0,0,0,.85-.16l7.06-2.56V83a2.5,2.5,0,0,0,5,0V65l4.88-1.78a2.5,2.5,0,0,0-.85-4.84Z"/><path class="cls-2" d="M23.43,75.56a12,12,0,0,1-2.76,8.2,9.82,9.82,0,0,1-7.61,3.06,8.76,8.76,0,0,1-6.15-2.63,7.88,7.88,0,0,1-2.49-5.28,3.59,3.59,0,0,1,0-.47,6.82,6.82,0,0,1,6.64-6.36,5.73,5.73,0,0,1,2.22.38,3.27,3.27,0,0,1,1.61,1.41,5,5,0,0,1,.61,2V76a1.56,1.56,0,0,1-.17.67,2.9,2.9,0,0,1-.94,1.13,1.77,1.77,0,0,1-1,.4l-.25,0a1,1,0,0,1-.33-.28,2.21,2.21,0,1,0-3.39,2.84,5.27,5.27,0,0,0,1.83,1.44,5,5,0,0,0,2.14.48A5.77,5.77,0,0,0,16,82a7.44,7.44,0,0,0,2.79-2.4A6.46,6.46,0,0,0,20,76a4.36,4.36,0,0,0,0-.51A9,9,0,0,0,18,70.62V52.7H13.59V67.94a10.54,10.54,0,0,0-2.51-.29A11.24,11.24,0,0,0,.05,78a6.94,6.94,0,0,0,0,.91,12.18,12.18,0,0,0,3.8,8.42,13.17,13.17,0,0,0,9.27,3.92,14.26,14.26,0,0,0,10.87-4.52,16.35,16.35,0,0,0,3.92-11.17V52.7H23.43Z"/><path class="cls-2" d="M95.37,78A11.24,11.24,0,0,0,84.32,67.65a11.09,11.09,0,0,0-2.51.28V52.7H77.39V70.62a9.06,9.06,0,0,0-1.91,4.83,4.35,4.35,0,0,0,0,.51,6.31,6.31,0,0,0,1.21,3.62A7.46,7.46,0,0,0,79.46,82a5.9,5.9,0,0,0,2.54.6,5.14,5.14,0,0,0,2.14-.47A5.42,5.42,0,0,0,86,80.66a2.21,2.21,0,0,0-3.39-2.83,1.11,1.11,0,0,1-.33.28l-.25,0a1.8,1.8,0,0,1-1-.4,3,3,0,0,1-1-1.13,1.76,1.76,0,0,1-.17-.68v-.08a4.8,4.8,0,0,1,.61-2,3.24,3.24,0,0,1,1.6-1.41,5.7,5.7,0,0,1,2.22-.39A6.82,6.82,0,0,1,91,78.43c0,.15,0,.31,0,.47a7.86,7.86,0,0,1-2.48,5.28,8.81,8.81,0,0,1-6.15,2.64,9.85,9.85,0,0,1-7.61-3.06A12,12,0,0,1,72,75.56V52.7H67.55V75.56a16.4,16.4,0,0,0,3.92,11.18,14.28,14.28,0,0,0,10.88,4.5,13.21,13.21,0,0,0,9.27-3.92,12.22,12.22,0,0,0,3.79-8.42C95.42,78.6,95.4,78.29,95.37,78Z"/><path class="cls-2" d="M62.47,76.13a3,3,0,0,0-3.85,1c-.5.66-.28,1.78-.07,1.3.31-1,1.93-1,2.45,0a1.66,1.66,0,0,1-1.51,2.28c-1.57.21-2.22-1.09-3.16-2.15a9.28,9.28,0,0,0-4.42-2.82,4.71,4.71,0,0,0-4.3,1,4.69,4.69,0,0,0-4.29-1,9.26,9.26,0,0,0-4.43,2.82c-.94,1-1.59,2.35-3.16,2.14a1.66,1.66,0,0,1-1.51-2.27,1.38,1.38,0,0,1,2.46,0c.2.48.42-.64-.08-1.3a3,3,0,0,0-3.85-1c-2.13.85-2.95,4-1.94,6.18,1.41,3,5.41,4.59,9.61,4.21,3-.28,5.3-2,7.19-4.88,1.89,2.86,4.22,4.6,7.2,4.88,4.19.38,8.19-1.16,9.61-4.21C65.43,80.12,64.61,77,62.47,76.13Z"/><path class="cls-2" d="M90.1,34.81,81.33,16.45,78.45,16l-8.24,5.67-1.9,1.24-6.54-.55,1.49-19L62.19,0,29.89.19,28.05,3.5l2.08,18.07-8.08-4.22-1.43,1.94L18,11.52,3.34,17.8l6.79,15.71L8.7,35.45l-.19,4.92,3.22-.68,1.67,6.17v4.69l68.29-.08V48l3.73-13.63ZM9.31,23.05l-.72-2.61,1.79-.83.83,2.69Zm1.94,4.86-.71-2.6,1.78-.83.83,2.68Zm1.05-8-.72-2.6,1.79-.83.83,2.68Zm1.94,4.86-.71-2.6,1.78-.83L16.14,24Zm4.51,17.91-1.43-3.51,2.81-.5,1.4,3.59Zm4.39-.91-1.23-3.63,2.64-.38.89,3.33ZM36.3,6.91H39v5a15.33,15.33,0,0,1-2.71,0C36.34,11.77,36.3,6.91,36.3,6.91Zm0,10.3h3.39v6H35.93ZM40,34.76l-3.32,0-.18-6.79L40,27.8Zm7.3-27.85V12H44.45l-.36-5.09ZM44.36,17.68h3.33v6.17H44.36Zm.57,17,.64-6.35h2.12l.53,6.35Zm10.71-.32-2.84.32V27.76h2.84Zm0-10.46H52.8V17.68h2.84Zm0-11H52.8v-6h2.84ZM63,41.33,60.29,41l1.06-5.29c.24,0,2.5.33,2.5.33Zm.9-8.66L61,32.34l.8-5,3.12.6Zm4.26,9.59-2.33-.37.68-5.22c.12.06,2.48.43,2.48.43Zm1.23-9.12-2.14-.33.74-4.6,2.13.47Zm8.91,9.12-3.09-.7,1.24-5.11,3.26.37Z"/><path class="cls-1" d="M134,14.42a.63.63,0,0,0-.63.63v5.31a10.63,10.63,0,0,1-.08,1.25,1.46,1.46,0,0,1-.31.69,1.87,1.87,0,0,1-1.51.58,1.92,1.92,0,0,1-1.51-.59,1.41,1.41,0,0,1-.3-.68,10.63,10.63,0,0,1-.08-1.25V15.05a.63.63,0,0,0-.63-.63h-1.21a.63.63,0,0,0-.63.63V20.5a10.66,10.66,0,0,0,.09,1.25,4.78,4.78,0,0,0,.67,1.87,4.33,4.33,0,0,0,3.6,1.58,4.27,4.27,0,0,0,3.58-1.58,4.79,4.79,0,0,0,.68-1.87,10.66,10.66,0,0,0,.09-1.25V15.05a.63.63,0,0,0-.63-.63Z"/><path class="cls-1" d="M112.13,19.45a2.57,2.57,0,0,0,.87-2.06,2.7,2.7,0,0,0-2-2.66,6.31,6.31,0,0,0-2.15-.31h-2.72a.57.57,0,0,0-.57.57v9.39a.58.58,0,0,0,.57.57h3.08a5.58,5.58,0,0,0,2.17-.38,3,3,0,0,0,2-2.85A2.54,2.54,0,0,0,112.13,19.45ZM108,16.67h.79c1.7,0,1.7.58,1.7.84s0,.89-1.78.89H108Zm1.06,6H108V20.61h.78a4.2,4.2,0,0,1,1.29.2c.65.23.75.54.75.84S110.82,22.69,109.06,22.69Z"/><path class="cls-1" d="M157.72,23l-3.58-3.57,3.15-3.15a.58.58,0,0,0,0-.81l-.94-.94a.58.58,0,0,0-.81,0l-4,4V15a.59.59,0,0,0-.56-.59h-1.34a.59.59,0,0,0-.56.59v9.39a.56.56,0,0,0,.56.56H151a.56.56,0,0,0,.56-.56V22.07l.06-.05.82-.81L156,24.78a.58.58,0,0,0,.81,0l1-.94A.6.6,0,0,0,157.72,23Z"/><path class="cls-1" d="M179.73,23l-3.57-3.57,3.15-3.15a.59.59,0,0,0,0-.81l-1-.94a.58.58,0,0,0-.81,0l-4,4V15a.59.59,0,0,0-.56-.59h-1.33a.59.59,0,0,0-.56.59v9.39a.55.55,0,0,0,.56.56H173a.55.55,0,0,0,.56-.56V22.07l.07-.05.81-.81L178,24.78a.58.58,0,0,0,.81,0l.94-.94A.59.59,0,0,0,179.73,23Z"/><path class="cls-1" d="M200.57,22.62h-4.23V20.67h3.54a.57.57,0,0,0,.57-.57V19a.58.58,0,0,0-.57-.57h-3.54V16.73h4.07a.58.58,0,0,0,.57-.57V15a.57.57,0,0,0-.57-.57h-5.95a.56.56,0,0,0-.57.57v9.39a.57.57,0,0,0,.57.57h6.11a.57.57,0,0,0,.56-.57V23.19A.57.57,0,0,0,200.57,22.62Z"/><path class="cls-1" d="M223.28,14.42H222a.56.56,0,0,0-.57.57s0,4.85,0,5l-3.36-5.11a1.18,1.18,0,0,0-.88-.47h-1.41a.57.57,0,0,0-.57.57v9.39a.58.58,0,0,0,.57.57h1.31a.57.57,0,0,0,.56-.57V18.65l3.84,5.82a1.19,1.19,0,0,0,.88.48h.92a.58.58,0,0,0,.57-.57V15A.57.57,0,0,0,223.28,14.42Z"/><path class="cls-1" d="M267.25,14.42h-1.33a.57.57,0,0,0-.57.57v3.38h-3.59V15a.56.56,0,0,0-.57-.57h-1.33a.56.56,0,0,0-.56.57v9.39a.57.57,0,0,0,.56.57h1.33a.57.57,0,0,0,.57-.57V20.64h3.59v3.74a.58.58,0,0,0,.57.57h1.33a.57.57,0,0,0,.56-.57V15A.56.56,0,0,0,267.25,14.42Z"/><path class="cls-1" d="M244.39,15.65a4.73,4.73,0,0,0-3.47-1.37,4.67,4.67,0,0,0-3.46,1.37,5.45,5.45,0,0,0-1.52,4,5.5,5.5,0,0,0,1.55,4.07,5,5,0,0,0,6.87,0,5.43,5.43,0,0,0,1.55-4A5.49,5.49,0,0,0,244.39,15.65Zm-3.47,7.17a2.1,2.1,0,0,1-1.56-.64,3.34,3.34,0,0,1-.87-2.5,3.33,3.33,0,0,1,.88-2.51,2.17,2.17,0,0,1,3.1,0,3.3,3.3,0,0,1,.89,2.46,3.43,3.43,0,0,1-.87,2.55A2.16,2.16,0,0,1,240.92,22.82Z"/><path class="cls-3" d="M238.27,9.25a.42.42,0,0,1-.42.42.41.41,0,0,1-.41-.42.41.41,0,0,1,.41-.41A.41.41,0,0,1,238.27,9.25Z"/><path class="cls-3" d="M244.41,9.25a.42.42,0,0,1-.42.42.41.41,0,0,1-.41-.42.41.41,0,0,1,.41-.41A.41.41,0,0,1,244.41,9.25Z"/><path class="cls-3" d="M241.34,8.56a.41.41,0,0,1-.42.41.41.41,0,0,1-.41-.41.41.41,0,0,1,.41-.42A.42.42,0,0,1,241.34,8.56Z"/><polygon class="cls-3" points="243.37 12.86 243.73 10.04 242.25 11.09 240.92 9.35 239.6 11.09 238.12 10.04 238.48 12.86 243.37 12.86"/></g></g></svg>