<svg xmlns="http://www.w3.org/2000/svg" width="732.81" height="288.25" viewBox="0 0 732.81 288.25"><defs><style>.cls-1{fill:#fff;}</style></defs><title>ttl_mainVisual_01</title><g id="レイヤー_2" data-name="レイヤー 2"><g id="レイヤー_1-2" data-name="レイヤー 1"><path class="cls-1" d="M158.57,11.14a17.5,17.5,0,0,1-1.15,1.9v2l1.67-1.41c3.4,2.7,5.48,4.39,6.22,5.06A22.94,22.94,0,0,1,167,20.4l-3.14,2.81A35,35,0,0,0,159.72,19c-.91-.75-1.67-1.42-2.3-2V28.6h-4V18a26.17,26.17,0,0,1-6.92,5.18,18.71,18.71,0,0,0-2.48-3.3,22.13,22.13,0,0,0,7.29-5.49,20.42,20.42,0,0,0,2.48-3.23h-8.88V7.39h21v3.75Z"/><path class="cls-1" d="M209.29,11.54l0,1.17a112.9,112.9,0,0,1-.65,13,3.55,3.55,0,0,1-1.23,2.23,4.79,4.79,0,0,1-2.71.72h-1.74a8.17,8.17,0,0,0-.89-3.18,12,12,0,0,1-3,3.44A8.74,8.74,0,0,0,197.5,27l-10.13.92-.42-3c1.05,0,2.61-.15,4.69-.3v-.85h-4V21.15h4V20.7h-3.92V13h3.92v-.42h-4.48V9.94h4.48V9.57c-1.24.06-2.5.1-3.8.12a8.4,8.4,0,0,0-.77-2.58,73.22,73.22,0,0,0,10.47-1.17l1.57,2.71c-1.31.27-2.71.49-4.19.66v.63h4.33v1.22h1.86V6.33h3.49V8.89c0,1.06,0,1.82,0,2.27h4.72Zm-18.66,3.72v.52h1v-.52Zm0,3.17h1v-.52h-1Zm8.53-5.86h-4.24V13h4V20.7h-4v.45h4.17V23.3c1.13-1.79,1.77-4.73,1.95-8.81h-1.88Zm-3.23,2.69h-1v.52h1Zm0,3.17v-.52h-1v.52Zm-1,5.29v.64l1.79-.14,1.86-.14a1.68,1.68,0,0,0,.26-.36Zm9.56-9.23q-.34,7-2.3,10.66a20.33,20.33,0,0,0,2.09.1,1,1,0,0,0,.75-.35q.58-1,.73-10.41Z"/><path class="cls-1" d="M235.78,12.31a10,10,0,0,0-.68-1.83h-3.58V7.41h7.92V5.84h3.66V7.41H251v3.07h-2.9c-.39.63-.77,1.24-1.15,1.83h5.23v3.14H238l2.65.63c0,.1-.15.41-.36.94h1.43V15.47h3.57V17h5.5v2.79h-5.5V21h4.8v2.76h-4.8v1.39H252v3H235.17v-3h6.54V23.79H237V21.45a13.91,13.91,0,0,0-2-1.22,17.77,17.77,0,0,1-2.67,8.39,12.26,12.26,0,0,0-1.88-1.68,3.45,3.45,0,0,0-.93-.64q2.17-3.16,2.18-10v-4Zm1.57,3.14h-2.2v.91a26.69,26.69,0,0,1-.12,3A9.16,9.16,0,0,0,237.35,15.45Zm4.36,4.36h-3a7.36,7.36,0,0,1-.91,1.22h3.86Zm2.16-9.33h-5a7.27,7.27,0,0,1,.59,1.83h3.79A14,14,0,0,0,243.87,10.48Z"/><path class="cls-1" d="M288.79,10.79l.45.91L291,11l1.15,2.81a46.48,46.48,0,0,1-6.73,2.49,57.87,57.87,0,0,1-7.4,1.66v4.71a1.15,1.15,0,0,0,.32.94,2.62,2.62,0,0,0,1.43.26q8.85,0,12.8-.38l-.12,3.78q-3.72.21-12.49.21a17.21,17.21,0,0,1-2.42-.14,6.13,6.13,0,0,1-1.73-.54c-1-.53-1.47-1.69-1.47-3.47V7.58H278V13.9A39.83,39.83,0,0,0,288.79,10.79Zm-1.12-3.33,2.23-.94a29.25,29.25,0,0,1,2,3.45l-2.27.91A38.53,38.53,0,0,0,287.67,7.46Zm3.05-1.2,2.22-.89a23.35,23.35,0,0,1,2,3.35l-2.25,1A28.83,28.83,0,0,0,290.72,6.26Z"/><path class="cls-1" d="M313.64,16l2.2-3.26A46.71,46.71,0,0,1,323,16.36l-2.18,3.31A36.16,36.16,0,0,0,313.64,16Zm1.47,7.57a34.18,34.18,0,0,0,4.95-.57,13.69,13.69,0,0,0,7.31-3.51,16,16,0,0,0,3.87-8.25l3.58,2.6q-1.59,6.58-6.22,9.83t-12.67,3.9Zm1-13.17,2.22-3.19a53.11,53.11,0,0,1,7.15,3.7l-2.16,3.33A38.46,38.46,0,0,0,316.15,10.44Zm11.46-2.77,2.39-1a36.84,36.84,0,0,1,2.25,3.84l-2.44,1.05A24.68,24.68,0,0,0,327.61,7.67Zm3.46-1.2,2.44-1a37,37,0,0,1,2.32,3.7l-2.43,1.08A24.38,24.38,0,0,0,331.07,6.47Z"/><path class="cls-1" d="M354.86,21.26A26.48,26.48,0,0,0,363.08,18a16.49,16.49,0,0,0,5.26-4.63H357V9.61H364V6.12h3.78V9.61h6.65a14.27,14.27,0,0,1-4.31,7.72,40.14,40.14,0,0,1,6.68,4.52L374.08,25a43.22,43.22,0,0,0-6.3-4.57v8.11H364V22a27.69,27.69,0,0,1-6.51,2.7Z"/><path class="cls-1" d="M396.88,24.12a29.12,29.12,0,0,0,8.07-4.5,16.63,16.63,0,0,0,3.27-3.43,14.13,14.13,0,0,0,2-4.18H399.32V8.23h16.1a22.66,22.66,0,0,1-4,10.2A39.93,39.93,0,0,1,418.78,25l-2.84,3A36.9,36.9,0,0,0,409,21.29a44.07,44.07,0,0,1-9,6.42Z"/><path class="cls-1" d="M245.35,88.49h12.94V54.21H168.37V88.49h36.75L160,191.79h25v44.73h73.31V139.6H223Zm-20,115.9H218v-30.5h7.33Z"/><path class="cls-1" d="M638.28,185.63l7.26,16.6H612l13.44-28.34h61.53l5.64,11.74h40.23L645.47,3.89H605.24L517.49,185.63h40.23l5.67-11.74h21.79l-29.71,62.63H700.76l-22.25-50.89Zm-13-140L649,95H601.5ZM579.94,139.6l5-10.35h80.54l5,10.35H579.94Z"/><polygon class="cls-1" points="519.59 139.6 485.18 139.6 479.35 139.6 452.87 139.6 456.25 132.51 427.89 132.51 445.27 96.28 408.13 96.28 408.13 88.5 437.2 88.5 477.44 88.5 503.1 88.5 496.27 104.12 492.84 96.28 452.6 96.28 468.45 132.51 508.68 132.51 497.26 106.39 535.51 106.39 558.33 54.21 526.92 54.21 518.09 54.21 493.35 54.21 516.71 3.89 476.47 3.89 453.12 54.21 408.13 54.21 373.84 54.21 373.84 88.5 373.84 106.39 400.19 106.39 387.65 132.51 416.01 132.51 412.63 139.6 373.84 139.6 373.84 173.89 396.29 173.89 341.77 288.25 382 288.25 436.52 173.89 463.08 173.89 433.36 236.52 468.06 236.52 473.59 236.52 522.66 236.52 537.69 202.23 489.86 202.23 519.59 139.6"/><polygon class="cls-1" points="154.14 88.5 154.14 54.21 100.28 54.21 100.28 0 65.99 0 65.99 54.21 12.14 54.21 12.14 88.5 57.7 88.5 0 236.52 50.87 236.52 83.14 153.74 115.41 236.52 166.27 236.52 108.57 88.5 154.14 88.5"/><path class="cls-1" d="M348.85,236.52V173.89h7.34V139.6h-7.34V88.49h7.34V54.21H265.62V88.49H273V139.6h-7.33v34.29H273v30.5L258.9,236.52h34.29l14.05-32.13v-30.5h7.33v62.63ZM307.24,139.6V88.49h7.33V139.6Z"/></g></g></svg>